<?xml version="1.0" encoding="utf-8"?>
<!-- Generator: Adobe Illustrator 22.0.1, SVG Export Plug-In . SVG Version: 6.00 Build 0)  -->
<svg version="1.1" id="Capa_1" xmlns="http://www.w3.org/2000/svg" xmlns:xlink="http://www.w3.org/1999/xlink" x="0px" y="0px"
	 viewBox="0 0 512 512" style="enable-background:new 0 0 512 512;" xml:space="preserve">
<style type="text/css">
	.st0{fill:#C1B0B5;}
	.st1{fill:#F3EFF0;}
	.st2{fill:#FF7B79;}
	.st3{fill:#D8EC84;}
	.st4{fill:#FF7B79;stroke:#000000;stroke-width:16;stroke-miterlimit:10;}
</style>
<g>
	<path class="st0" d="M323.7,462H188.3L160,502h192L323.7,462z"/>
	<path class="st1" d="M256,77.7c-0.1,0.1-131.4,101-180,138.4V422h360V216.2L256,77.7z"/>
	<path class="st2" d="M256,77.7c0,0-197.8,152.2-197.8,152.2c-5.8,4.4-13.2,6.7-21.2,6c-15.1-1.5-23.3-10.1-26.2-22.8
		c-2.8-12.5,2.2-24.1,11-30.9l216-166c10.7-8.2,25.6-8.2,36.3,0c140.1,107.7-20.5-15.7,216,166c7.2,5.5,11.8,14.1,11.8,23.9
		c0,16.6-13.4,30-30,30c-6.8,0-13.1-2.3-18.2-6.1C445.3,223.3,264.9,84.6,256,77.7z"/>
	<path class="st3" d="M436,382.2c24.1,1.9,43.2,21.1,45.5,45.1C493.7,434.1,502,447,502,462c0,22.1-17.9,40-40,40
		c-22.4,0-62.7,0-110,0c-16.6,0-30-13.4-30-30c0-13,8.4-24.1,20.2-28.2C341,420.3,359.8,402,382,402c3.2,0,6.3,0.5,9.2,1.2
		C401.8,388.2,419.1,380.7,436,382.2z"/>
	<path class="st0" d="M436,10v130.5l0,0l-60-46.1V10L436,10z"/>
	<path class="st3" d="M190,472c0,16.6-13.4,30-30,30c-47.3,0-87.6,0-110,0c-22.1,0-40-17.9-40-40c0-15,8.3-27.8,20.5-34.7
		c2.3-24,21.4-43.2,45.5-45.1c17-1.4,34.2,6.1,44.7,21c3-0.7,6-1.2,9.2-1.2c22.1,0,40,17.9,40,40c0,0.6-0.1,1.2-0.2,1.8
		C181.6,447.9,190,459,190,472L190,472z"/>
</g>
<g>
	<circle cx="126" cy="102" r="10"/>
	<path d="M447.8,237.8c7,5.3,15.4,8.2,24.2,8.2c22.1,0,40-17.9,40-40c0-12.6-5.8-24.2-15.7-31.8L446,135.6V10c0-5.5-4.5-10-10-10
		h-60c-5.5,0-10,4.5-10,10v64.1L280.2,8.2C273.2,2.8,264.8,0,256,0c-8.8,0-17.2,2.8-24.3,8.2l-76.1,58.5c-4.4,3.4-5.2,9.6-1.8,14
		c3.4,4.4,9.6,5.2,14,1.8l76.1-58.5c3.5-2.7,7.7-4.1,12.1-4.1c4.4,0,8.6,1.4,12.1,4l216,166c5,3.8,7.9,9.6,7.9,15.9c0,11-9,20-20,20
		c-4.4,0-8.6-1.4-12.1-4c-11.2-8.6-188.8-145.2-197.8-152.2c-3.5-2.7-8.3-2.8-11.8-0.3c-0.5,0.3-198.1,152.4-198.2,152.4
		c-4,3.1-9,4.5-14.1,4c-9.9-1-15.3-5.6-17.4-15.1c-1.8-7.9,1-15.9,7.4-20.7l68.5-52.7c4.4-3.4,5.2-9.6,1.8-14
		c-3.4-4.4-9.6-5.2-14-1.8l-68.5,52.6c-12.6,9.6-18.3,25.4-14.7,41c4.1,17.9,16.5,28.8,35,30.6c10.1,1,20.2-1.8,28.2-8l0,0
		c0.4-0.3,1-0.8,1.8-1.3v137.2c-22.9,5.5-40.6,24.1-44.8,47.7C8,430.7,0,445.8,0,462c0,27.6,22.4,50,50,50h412c27.6,0,50-22.4,50-50
		c0-16.2-8-31.3-21.2-40.7c-4.2-23.6-21.9-42.2-44.8-47.7V236.5L447.8,237.8z M386,20h40v100.2l-40-30.7V20z M160,492H50
		c-16.5,0-30-13.5-30-30c0-10.7,5.9-20.6,15.4-26c2.8-1.6,4.7-4.5,5-7.8c2-20.5,19-36.2,39.6-36.2c12.9,0,25.1,6.3,32.6,17
		c2.4,3.3,6.5,4.9,10.5,3.9c2.6-0.6,4.8-0.9,6.9-0.9c16.1,0,29.8,13,30,29.6c-0.9,6,2.4,10.1,6.5,11.6c7.7,2.7,13.5,10,13.5,18.8
		C180,483,171,492,160,492z M332.2,437.4c-6.2,3.5-11.3,8.5-14.8,14.6H194.6c-3.5-6.1-8.6-11.1-14.8-14.6c-0.2-1.8-0.4-3.6-0.8-5.4
		h154C332.7,433.8,332.4,435.6,332.2,437.4z M194.6,492c3.4-5.9,5.4-12.7,5.4-20h112c0,7.3,2,14.1,5.4,20H194.6z M471.6,428.2
		c0.3,3.3,2.2,6.2,5,7.8c9.5,5.4,15.4,15.3,15.4,26c0,16.5-13.5,30-30,30H352c-11,0-20-9-20-20c0-8.8,5.7-16.1,13.5-18.8
		c4.2-1.5,7.4-5.6,6.5-11.6c0.2-16.6,13.8-29.6,30-29.6c2.1,0,4.4,0.3,6.9,0.9c4,0.9,8.1-0.6,10.5-3.9c7.5-10.6,19.7-17,32.6-17
		C452.6,392,469.6,407.7,471.6,428.2L471.6,428.2z M426,372.3c-14.9,1.5-28.9,8.7-38.9,20c-1.7-0.2-3.5-0.3-5.1-0.3
		c-15.8,0-30.6,7.5-40,20H170c-9.4-12.5-24.2-20-40-20c-1.7,0-3.4,0.1-5.1,0.3c-10-11.3-23.9-18.5-38.9-20V221.1
		c14.5-11.2,153.3-117.9,170-130.7l170,130.7V372.3z"/>
</g>
<path class="st4" d="M360.7,301.8c0-13.1-5.7-27.8-20.7-40.8c2.9-5.9,4.4-12.3,4.4-19c0-23.6-18.4-42.7-41-42.7
	c-19.9,0-36.5,14.8-40.2,34.4c-3.1-0.2-6.1-0.3-9-0.3s-5.9,0.1-9,0.3c-3.7-19.6-20.3-34.4-40.2-34.4c-22.6,0-41,19.2-41,42.7
	c0,6.6,1.5,13.1,4.4,19c-15,13.1-20.7,27.8-20.7,40.8c0,26.7,22.5,48.6,45.2,57c43.7,16.2,97.6,13.9,138.3-9.4
	c12-6.9,22.9-17.4,27-30.5C360,313.4,360.7,307.6,360.7,301.8z"/>
</svg>
