<?xml version="1.0" encoding="utf-8"?>
<!-- Generator: Adobe Illustrator 22.0.1, SVG Export Plug-In . SVG Version: 6.00 Build 0)  -->
<svg version="1.1" id="Layer_1" xmlns="http://www.w3.org/2000/svg" xmlns:xlink="http://www.w3.org/1999/xlink" x="0px" y="0px"
	 viewBox="0 0 512 512" style="enable-background:new 0 0 512 512;" xml:space="preserve">
<style type="text/css">
	.st0{fill:#FFFFFF;}
</style>
<path class="st0" d="M474.3,85.3c0,38.3-31,69.3-69.3,69.3s-69.3-31-69.3-69.3c0-38.3,31-69.3,69.3-69.3S474.3,47,474.3,85.3z"/>
<path class="st0" d="M405,170.7c-47.1,0-85.3-38.3-85.3-85.3C319.7,38.3,357.9,0,405,0s85.3,38.3,85.3,85.3
	C490.3,132.4,452.1,170.7,405,170.7z M405,32c-29.4,0-53.3,23.9-53.3,53.3c0,29.4,23.9,53.3,53.3,53.3s53.3-23.9,53.3-53.3
	C458.3,55.9,434.4,32,405,32z"/>
<path class="st0" d="M474.3,426.7c0,38.3-31,69.3-69.3,69.3s-69.3-31-69.3-69.3c0-38.3,31-69.3,69.3-69.3S474.3,388.4,474.3,426.7z"
	/>
<path class="st0" d="M405,512c-47.1,0-85.3-38.3-85.3-85.3c0-47.1,38.3-85.3,85.3-85.3s85.3,38.3,85.3,85.3
	C490.3,473.7,452.1,512,405,512z M405,373.3c-29.4,0-53.3,23.9-53.3,53.3c0,29.4,23.9,53.3,53.3,53.3s53.3-23.9,53.3-53.3
	C458.3,397.3,434.4,373.3,405,373.3z"/>
<path class="st0" d="M175.7,256c0,38.3-31,69.3-69.3,69.3C68,325.3,37,294.3,37,256s31-69.3,69.3-69.3
	C144.6,186.7,175.7,217.7,175.7,256z"/>
<path class="st0" d="M106.3,341.3C59.3,341.3,21,303.1,21,256s38.3-85.3,85.3-85.3c47.1,0,85.3,38.3,85.3,85.3
	S153.4,341.3,106.3,341.3z M106.3,202.7C76.9,202.7,53,226.6,53,256s23.9,53.3,53.3,53.3c29.4,0,53.3-23.9,53.3-53.3
	S135.8,202.7,106.3,202.7z"/>
<path class="st0" d="M156.7,245.8c-7.4,0-14.6-3.9-18.6-10.8c-5.8-10.2-2.2-23.3,8-29.1L344.1,93c10.2-5.9,23.3-2.3,29.1,8
	c5.8,10.2,2.2,23.3-8,29.1L167.2,243C163.9,244.9,160.3,245.8,156.7,245.8z"/>
<path class="st0" d="M354.6,421.8c-3.6,0-7.2-0.9-10.5-2.8l-198-112.9c-10.2-5.8-13.8-18.9-8-29.1c5.8-10.2,18.9-13.8,29.1-8
	l198,112.9c10.2,5.8,13.8,18.9,8,29.1C369.2,417.9,362,421.8,354.6,421.8z"/>
</svg>
